<svg width="257" height="257" viewBox="0 0 257 257" fill="none" xmlns="http://www.w3.org/2000/svg">
<g clip-path="url(#clip0_531_398)">
<path d="M257 0H0V257H257V0Z" fill="white"/>
<path d="M162.875 123.5C181.86 123.5 197.25 108.11 197.25 89.125C197.25 70.1402 181.86 54.75 162.875 54.75C143.89 54.75 128.5 70.1402 128.5 89.125C128.5 94.6239 129.791 99.8213 132.087 104.43C132.697 105.655 132.9 107.055 132.547 108.377L130.499 116.029C129.61 119.351 132.649 122.39 135.971 121.501L143.623 119.453C144.945 119.1 146.345 119.303 147.57 119.913C152.179 122.209 157.376 123.5 162.875 123.5Z" stroke="#1C274C" stroke-width="10.3125"/>
<path d="M149.125 89.125H176.625M162.875 102.875V75.375" stroke="#1C274C" stroke-width="10.3125" stroke-linecap="round"/>
<path d="M101.258 91.2987L105.72 99.2938C109.747 106.509 108.131 115.974 101.789 122.316C101.789 122.316 94.0967 130.009 108.044 143.957C121.986 157.899 129.684 150.211 129.684 150.211C136.026 143.869 145.491 142.253 152.706 146.28L160.701 150.742C171.597 156.822 172.883 172.101 163.307 181.678C157.552 187.432 150.503 191.91 142.71 192.205C129.592 192.702 107.313 189.382 84.9654 167.035C62.6178 144.687 59.2977 122.408 59.795 109.29C60.0905 101.497 64.568 94.4478 70.3225 88.6935C79.899 79.1169 95.1781 80.4037 101.258 91.2987Z" stroke="#1C274C" stroke-width="10.3125" stroke-linecap="round"/>
</g>
<defs>
<clipPath id="clip0_531_398">
<rect width="257" height="257" fill="white"/>
</clipPath>
</defs>
</svg>
