<svg width="743" height="743" viewBox="0 0 743 743" fill="none" xmlns="http://www.w3.org/2000/svg">
<path d="M0 185.556C0 83.076 83.076 0 185.556 0H556.667C659.146 0 742.222 83.076 742.222 185.556V556.667C742.222 659.146 659.146 742.222 556.667 742.222H185.556C83.076 742.222 0 659.146 0 556.667V185.556Z" fill="black"/>
<path fill-rule="evenodd" clip-rule="evenodd" d="M185.926 157H556.741C596.465 157 628.667 189.202 628.667 228.926V513.964C628.667 553.687 596.465 585.889 556.741 585.889H185.926C146.202 585.889 114 553.687 114 513.964V228.926C114 189.202 146.202 157 185.926 157ZM556.741 181.508H185.926C159.738 181.508 138.508 202.738 138.508 228.926V255.032H604.159V228.926C604.159 202.738 582.929 181.508 556.741 181.508ZM138.508 513.964V279.54H604.159V513.964C604.159 540.152 582.929 561.381 556.741 561.381H185.926C159.738 561.381 138.508 540.152 138.508 513.964ZM548.988 206.016H481.619L480.19 206.098C474.096 206.806 469.365 211.986 469.365 218.27C469.365 225.038 474.852 230.524 481.619 230.524H548.988L550.417 230.441C556.511 229.734 561.242 224.554 561.242 218.27C561.242 211.502 555.756 206.016 548.988 206.016Z" fill="white"/>
<path fill-rule="evenodd" clip-rule="evenodd" d="M232.483 331.702L231.277 330.744C226.28 327.264 219.356 327.969 215.177 332.613L214.22 333.819C210.74 338.816 211.445 345.739 216.088 349.918L277.443 405.143L216.088 460.368L215.009 461.468C211.024 466.072 210.998 473.031 215.177 477.674C219.705 482.705 227.453 483.112 232.483 478.585L303.965 414.252L305.041 413.156C309.346 408.191 308.987 400.555 303.965 396.035L232.483 331.702ZM408.095 490.921C408.095 484.154 402.609 478.667 395.841 478.667H324.36L322.931 478.75C316.836 479.458 312.106 484.637 312.106 490.921C312.106 497.689 317.592 503.175 324.36 503.175H395.841L397.27 503.093C403.365 502.385 408.095 497.205 408.095 490.921Z" fill="white"/>
</svg>
