<svg width="20" height="20" viewBox="0 0 20 20" fill="none" xmlns="http://www.w3.org/2000/svg">
<path d="M0 5C0 2.23858 2.23858 0 5 0H15C17.7614 0 20 2.23858 20 5V15C20 17.7614 17.7614 20 15 20H5C2.23858 20 0 17.7614 0 15V5Z" fill="white"/>
<path fill-rule="evenodd" clip-rule="evenodd" d="M7.45832 5.42774L9.92839 7.13099C9.98414 7.16849 10.0493 7.18903 10.1161 7.19018C10.183 7.1897 10.2483 7.1691 10.3038 7.13099L12.7757 5.42201C12.8718 5.35253 12.9247 5.23672 12.9151 5.11722C12.9055 4.99773 12.8347 4.89224 12.7288 4.83961L10.2587 3.60418C10.165 3.55825 10.0559 3.55825 9.96217 3.60418L7.49962 4.83961C7.39182 4.89252 7.32008 5.00006 7.31156 5.1215C7.30304 5.24295 7.35901 5.35977 7.45832 5.42774ZM10.9551 7.66564C10.9553 7.77859 11.01 7.88423 11.1015 7.94824L13.0817 9.31543C13.2084 9.40372 13.378 9.39269 13.4927 9.28869L15.1538 7.78785C15.2279 7.72104 15.269 7.62427 15.2661 7.52364C15.2632 7.423 15.2166 7.32884 15.1388 7.26656L13.5528 5.9853C13.4375 5.89278 13.2767 5.8866 13.1549 5.97002L11.1015 7.38877C11.0116 7.45161 10.9571 7.55472 10.9551 7.66564ZM6.02995 9.52547C6.10999 9.5981 6.15113 9.70523 6.1407 9.8138C6.13031 9.92302 6.06786 10.0201 5.97365 10.0735L4.79117 10.7895C4.6713 10.8619 4.51995 10.8515 4.41078 10.7633C4.30161 10.6751 4.2573 10.5276 4.2994 10.3924L4.73673 9.00227C4.77104 8.89214 4.858 8.80726 4.9676 8.77696C5.07712 8.74477 5.19521 8.77299 5.27917 8.85143L6.02995 9.52547ZM12.4435 9.67059L10.3057 8.19265C10.192 8.11542 10.0439 8.11542 9.93027 8.19265L7.79242 9.67059C7.70739 9.73004 7.65352 9.82559 7.64601 9.93028C7.64048 10.0357 7.68183 10.1381 7.75863 10.2091L9.89461 12.1395C9.95621 12.195 10.0357 12.2256 10.118 12.2255C10.2002 12.2255 10.2796 12.1949 10.3413 12.1395L12.4773 10.2091C12.5543 10.1384 12.5952 10.0356 12.588 9.93028C12.5821 9.8256 12.5287 9.72966 12.4435 9.67059ZM6.74133 9.28869L5.0821 7.78784C5.00744 7.71933 4.96624 7.62084 4.96948 7.51861C4.97128 7.41785 5.01744 7.32323 5.09523 7.26082L6.68126 5.97193C6.79735 5.87968 6.95849 5.87352 7.08105 5.95665L9.13257 7.3754C9.22777 7.43848 9.2852 7.54623 9.2852 7.66182C9.2852 7.7774 9.22777 7.88517 9.13257 7.94824L7.15425 9.31542C7.02672 9.40334 6.85688 9.39233 6.74133 9.28869ZM15.2608 11.4445L13.5716 10.4229C13.4461 10.3466 13.2864 10.362 13.1774 10.4611L11.1128 12.3229C11.0257 12.4014 10.9848 12.5203 11.0046 12.6369C11.0245 12.7536 11.1024 12.8515 11.2104 12.8957L14.0746 14.0681C14.1139 14.0846 14.156 14.093 14.1985 14.093C14.3314 14.0934 14.4521 14.014 14.5063 13.8905L15.3941 11.8818C15.4663 11.7228 15.4088 11.534 15.2608 11.4445ZM15.4954 9.00229L15.9328 10.3924H15.929C15.9614 10.4964 15.943 10.6098 15.8795 10.6977C15.8161 10.7856 15.7153 10.8375 15.6081 10.8373C15.5479 10.8375 15.4889 10.821 15.4372 10.7895L14.2529 10.0735C14.1606 10.019 14.1003 9.922 14.0915 9.8138C14.0804 9.70514 14.1217 9.59773 14.2022 9.52548L14.953 8.84953C15.0378 8.77273 15.155 8.74472 15.2646 8.77506C15.3741 8.80666 15.4608 8.89197 15.4954 9.00229ZM9.23017 12.636C9.25035 12.5198 9.20985 12.4013 9.12318 12.3229L7.05853 10.4611C6.94951 10.362 6.78982 10.3466 6.66436 10.4229L4.97511 11.4445C4.82884 11.5344 4.77097 11.7208 4.83997 11.8799L5.72964 13.8886C5.80335 14.0561 5.99391 14.1345 6.16135 14.0662L9.0237 12.8938C9.13173 12.85 9.20984 12.7525 9.23017 12.636ZM10.2437 13.2089L12.5411 14.1483C12.6534 14.1969 12.731 14.3036 12.7438 14.4271C12.7584 14.5521 12.7034 14.675 12.6012 14.746L10.3019 16.3595C10.2468 16.3986 10.1814 16.4199 10.1142 16.4206C10.0471 16.4196 9.98178 16.3983 9.92652 16.3595L7.62913 14.746C7.52652 14.6752 7.47089 14.5524 7.48459 14.4271C7.49993 14.3023 7.58033 14.1957 7.69482 14.1483L9.99221 13.2089C10.073 13.1763 10.1629 13.1763 10.2437 13.2089Z" fill="#BF4722"/>
</svg>
