<svg width="535" height="470" viewBox="0 0 535 470" fill="none" xmlns="http://www.w3.org/2000/svg">
<g clip-path="url(#clip0_339_107)">
<path fill-rule="evenodd" clip-rule="evenodd" d="M325.18 0.5L513.15 188.455C538.709 214.009 538.709 255.827 513.15 281.38L325.118 469.397L266.169 410.454L441.72 234.919L266.228 59.4438L325.18 0.5Z" fill="#FFB703"/>
<path fill-rule="evenodd" clip-rule="evenodd" d="M19.1698 188.452L207.142 0.5L266.091 59.4438L90.5997 234.919L266.149 410.454L207.2 469.397L19.1661 281.383C-6.38933 255.827 -6.38929 214.009 19.1698 188.452Z" fill="#219EBC"/>
<path fill-rule="evenodd" clip-rule="evenodd" d="M178.378 147.145C226.66 98.8676 305.661 98.8676 353.939 147.145C402.218 195.419 402.218 274.417 353.939 322.691L266.159 410.465L178.378 322.691C130.097 274.417 130.097 195.423 178.378 147.145ZM230.731 200.802C250.215 181.32 282.095 181.32 301.579 200.802C321.062 220.284 321.066 252.157 301.582 271.639C282.099 291.121 250.215 291.121 230.735 271.639C211.255 252.161 211.252 220.284 230.731 200.802Z" fill="#D92C29"/>
</g>
<defs>
<clipPath id="clip0_339_107">
<rect width="535" height="469" fill="white" transform="translate(0 0.5)"/>
</clipPath>
</defs>
</svg>
