<svg width="27" height="25" viewBox="0 0 27 25" fill="none" xmlns="http://www.w3.org/2000/svg">
<g clip-path="url(#clip0_8_205)">
<path fill-rule="evenodd" clip-rule="evenodd" d="M10.589 0.5L1.1027 10.1182C-0.187199 11.4258 -0.187199 13.5657 1.1027 14.8734L10.5921 24.4947L13.5671 21.4784L4.70757 12.4959L13.5642 3.51631L10.589 0.5Z" fill="#FFB703"/>
<path fill-rule="evenodd" clip-rule="evenodd" d="M26.0326 10.118L16.5461 0.5L13.5711 3.51631L22.4277 12.4959L13.5682 21.4784L16.5432 24.4947L26.0327 14.8736C27.3225 13.5657 27.3225 11.4258 26.0326 10.118Z" fill="#219EBC"/>
<path fill-rule="evenodd" clip-rule="evenodd" d="M17.6874 6.85287C15.2507 4.38238 11.2638 4.38238 8.82733 6.85287C6.39084 9.32319 6.39084 13.3657 8.82733 15.836L13.2574 20.3276L17.6874 15.836C20.1241 13.3657 20.1241 9.32337 17.6874 6.85287ZM15.0453 9.59863C14.062 8.60169 12.4531 8.60169 11.4698 9.59863C10.4865 10.5956 10.4864 12.2266 11.4696 13.2236C12.4529 14.2205 14.062 14.2205 15.0451 13.2236C16.0282 12.2268 16.0284 10.5956 15.0453 9.59863Z" fill="#D92C29"/>
</g>
<defs>
<clipPath id="clip0_8_205">
<rect width="27" height="24" fill="white" transform="matrix(-1 0 0 1 27 0.5)"/>
</clipPath>
</defs>
</svg>
