<svg width="20" height="20" viewBox="0 0 20 20" fill="none" xmlns="http://www.w3.org/2000/svg">
<path d="M0 5C0 2.23858 2.23858 0 5 0H15C17.7614 0 20 2.23858 20 5V15C20 17.7614 17.7614 20 15 20H5C2.23858 20 0 17.7614 0 15V5Z" fill="white"/>
<g clip-path="url(#clip0_46_290)">
<path d="M12.2407 8.60117H14.6096V9.04451H13.6699V11.3769H13.2V9.04451H12.2407V8.60117Z" fill="black"/>
<path d="M8.34495 8.60117V9.04451H6.44613V9.75771H7.97316V10.2011H6.44613V10.9335H8.34495V11.3769H5.97627V9.04451H5.97607V8.60117H8.34495Z" fill="black"/>
<path d="M9.52774 8.60233H8.91284L11.1153 11.378H11.732L10.6306 9.99113L11.7302 8.60444L11.1153 8.60541L10.3228 9.60345L9.52774 8.60233Z" fill="black"/>
<path d="M10.1588 10.585L9.85084 10.1968L8.91113 11.3801H9.52779L10.1588 10.585Z" fill="black"/>
<path fill-rule="evenodd" clip-rule="evenodd" d="M5.99268 11.3769L3.78727 8.60001H3.19995V11.3757H3.66981V9.19331L5.40242 11.3769H5.99268Z" fill="black"/>
<path d="M14.7153 11.3599C14.6809 11.3599 14.6516 11.3478 14.6271 11.3236C14.6026 11.2995 14.5905 11.2702 14.5908 11.2355C14.5905 11.2018 14.6026 11.1729 14.6271 11.1487C14.6516 11.1245 14.6809 11.1124 14.7153 11.1124C14.7484 11.1124 14.7774 11.1245 14.8019 11.1487C14.8268 11.1729 14.8391 11.2018 14.8395 11.2355C14.8391 11.2584 14.8334 11.2794 14.822 11.2982C14.8102 11.3173 14.7952 11.3322 14.7764 11.343C14.758 11.3542 14.7376 11.3599 14.7153 11.3599Z" fill="black"/>
<path d="M15.5173 10.1906H15.7255V11.004C15.7252 11.0787 15.7092 11.1426 15.6781 11.1964C15.6465 11.2502 15.6029 11.2912 15.5469 11.3201C15.4912 11.3488 15.4259 11.3634 15.3517 11.3634C15.2839 11.3634 15.2231 11.351 15.169 11.3268C15.1149 11.3027 15.0719 11.2664 15.0404 11.2187C15.0085 11.171 14.9929 11.1115 14.9929 11.0402H15.2015C15.2018 11.0714 15.2088 11.0984 15.2222 11.121C15.2355 11.1436 15.254 11.1608 15.2776 11.1729C15.3014 11.185 15.3288 11.191 15.3597 11.191C15.3931 11.191 15.4218 11.184 15.445 11.1697C15.4682 11.1557 15.4861 11.1347 15.4985 11.1067C15.5106 11.079 15.517 11.0447 15.5173 11.004V10.1906Z" fill="black"/>
<path d="M16.5822 10.5087C16.5771 10.4594 16.5548 10.4209 16.516 10.3936C16.4768 10.3659 16.4262 10.3522 16.3641 10.3522C16.3205 10.3522 16.2829 10.3589 16.2517 10.3719C16.2205 10.3853 16.1963 10.4031 16.1798 10.4257C16.1632 10.4483 16.1549 10.474 16.1543 10.503C16.1543 10.5272 16.16 10.5481 16.1712 10.5656C16.1823 10.5835 16.1973 10.5984 16.2167 10.6105C16.2358 10.6229 16.2571 10.6331 16.2804 10.6413C16.3039 10.6496 16.3275 10.6566 16.351 10.6623L16.4596 10.6894C16.5032 10.6996 16.5456 10.7132 16.586 10.7307C16.6264 10.7479 16.663 10.7699 16.6952 10.7963C16.7273 10.8227 16.7528 10.8545 16.7716 10.8917C16.7904 10.9289 16.7999 10.9725 16.7999 11.0227C16.7999 11.0905 16.7827 11.15 16.748 11.2015C16.7133 11.2527 16.6633 11.2928 16.5978 11.3218C16.5325 11.3504 16.4535 11.365 16.3606 11.365C16.2708 11.365 16.1925 11.351 16.1266 11.323C16.0604 11.2954 16.0088 11.2546 15.9715 11.2012C15.9343 11.1478 15.9142 11.0825 15.9114 11.0059H16.1177C16.1206 11.046 16.1333 11.0794 16.1549 11.1064C16.1769 11.1331 16.2055 11.1528 16.2406 11.1662C16.2759 11.1792 16.3154 11.1859 16.359 11.1859C16.4045 11.1859 16.4446 11.1789 16.4793 11.1653C16.5137 11.1516 16.5408 11.1325 16.5602 11.1077C16.58 11.0832 16.5898 11.0542 16.5901 11.0212C16.5898 10.9909 16.5809 10.9658 16.5637 10.9461C16.5462 10.9264 16.522 10.9098 16.4911 10.8965C16.4599 10.8831 16.4236 10.871 16.3822 10.8605L16.2504 10.8268C16.1552 10.8023 16.0798 10.7651 16.0247 10.7151C15.9693 10.6652 15.9419 10.599 15.9419 10.516C15.9419 10.4479 15.9604 10.3881 15.9977 10.3369C16.0346 10.2857 16.0852 10.246 16.1492 10.2176C16.2135 10.189 16.2861 10.175 16.3669 10.175C16.4491 10.175 16.521 10.189 16.5831 10.2176C16.6452 10.246 16.6939 10.2854 16.7292 10.3357C16.7646 10.3859 16.7831 10.4435 16.784 10.5087H16.5822Z" fill="black"/>
</g>
<defs>
<clipPath id="clip0_46_290">
<rect width="13.6" height="2.8" fill="white" transform="translate(3.19995 8.60001)"/>
</clipPath>
</defs>
</svg>
