<svg width="257" height="257" viewBox="0 0 257 257" fill="none" xmlns="http://www.w3.org/2000/svg">
<g clip-path="url(#clip0_530_381)">
<path d="M257 0H0V257H257V0Z" fill="white"/>
<path d="M184.126 117.748C191.374 117.748 197.25 111.872 197.25 104.624C197.25 97.3758 191.374 91.5 184.126 91.5C176.877 91.5 171 97.3763 171 104.625V117.748H184.126ZM147.375 117.748C154.624 117.748 160.5 111.872 160.5 104.623V67.875C160.5 60.6263 154.624 54.75 147.375 54.75C140.126 54.75 134.25 60.6263 134.25 67.875V104.623C134.25 111.872 140.126 117.748 147.375 117.748Z" fill="#2EB67D"/>
<path d="M73.8739 128.252C66.6257 128.252 60.75 134.128 60.75 141.376C60.75 148.624 66.6263 154.5 73.8744 154.5C81.1231 154.5 87 148.624 87 141.375V128.252H73.8739ZM110.625 128.252C103.376 128.252 97.5 134.128 97.5 141.377V178.125C97.5 185.374 103.376 191.25 110.625 191.25C117.874 191.25 123.75 185.374 123.75 178.125V141.377C123.75 134.128 117.874 128.252 110.625 128.252Z" fill="#E01E5A"/>
<path d="M134.252 178.126C134.252 185.374 140.128 191.25 147.376 191.25C154.624 191.25 160.5 185.374 160.5 178.126C160.5 170.877 154.624 165 147.375 165H134.252V178.126ZM134.252 141.375C134.252 148.624 140.129 154.5 147.377 154.5H184.125C191.374 154.5 197.25 148.624 197.25 141.375C197.25 134.126 191.374 128.25 184.125 128.25H147.377C140.129 128.25 134.252 134.126 134.252 141.375Z" fill="#ECB22E"/>
<path d="M123.748 67.8739C123.748 60.6257 117.872 54.75 110.624 54.75C103.376 54.75 97.5 60.6263 97.5 67.8744C97.5 75.1232 103.376 81 110.625 81H123.748V67.8739ZM123.748 104.625C123.748 97.3763 117.872 91.5 110.623 91.5H73.875C66.6263 91.5 60.75 97.3763 60.75 104.625C60.75 111.874 66.6263 117.75 73.875 117.75H110.623C117.872 117.75 123.748 111.874 123.748 104.625Z" fill="#36C5F0"/>
</g>
<defs>
<clipPath id="clip0_530_381">
<rect width="257" height="257" fill="white"/>
</clipPath>
</defs>
</svg>
