<svg width="743" height="743" viewBox="0 0 743 743" fill="none" xmlns="http://www.w3.org/2000/svg">
<path d="M0 185.556C0 83.076 83.076 0 185.556 0H556.667C659.146 0 742.222 83.076 742.222 185.556V556.667C742.222 659.146 659.146 742.222 556.667 742.222H185.556C83.076 742.222 0 659.146 0 556.667V185.556Z" fill="#4F0599"/>
<path d="M602 554.9L489.129 601L302.547 416.6L185.07 508.8L139 485.75V255.25L185.07 232.2L302.547 324.4L486.826 140L602 186.1V554.9ZM364.741 370.5L486.826 465.005V273.69L364.741 370.5ZM185.07 441.955L256.478 370.5L187.373 299.045L185.07 441.955Z" fill="white"/>
</svg>
